# Blender v2.80 (sub 75) OBJ File: 'factory.blend'
# www.blender.org
mtllib quarry.mtl
o Circle
v 0.000000 10.000000 -5.000000
v -0.975452 10.000000 -4.903926
v -1.913417 10.000000 -4.619398
v -2.777851 10.000000 -4.157348
v -3.535534 10.000000 -3.535534
v -4.157348 10.000000 -2.777851
v -4.619398 10.000000 -1.913417
v -4.903926 10.000000 -0.975452
v -5.000000 10.000000 -0.000000
v -4.903926 10.000000 0.975451
v -4.619398 10.000000 1.913416
v -4.157348 10.000000 2.777851
v -3.535534 10.000000 3.535534
v -2.777851 10.000000 4.157348
v -1.913416 10.000000 4.619398
v -0.975450 10.000000 4.903926
v 0.000002 10.000000 5.000000
v 0.975454 10.000000 4.903926
v 1.913419 10.000000 4.619397
v 2.777853 10.000000 4.157347
v 3.535536 10.000000 3.535532
v 4.157350 10.000000 2.777848
v 4.619399 10.000000 1.913413
v 4.903927 10.000000 0.975447
v 5.000000 10.000000 -0.000005
v 4.903925 10.000000 -0.975457
v 4.619395 10.000000 -1.913422
v 4.157345 10.000000 -2.777856
v 3.535529 10.000000 -3.535538
v 2.777846 10.000000 -4.157352
v 1.913410 10.000000 -4.619401
v 0.975444 10.000000 -4.903928
v -0.779417 10.000000 -3.918396
v -0.389705 10.500000 -4.033544
v -1.528882 10.000000 -3.691048
v -1.916886 10.500000 -3.570281
v -3.127712 10.500000 -2.576581
v -3.321855 10.000000 -2.219593
v -3.691048 10.000000 -1.528882
v -3.880013 10.500000 -1.169126
v -4.033545 10.500000 0.389708
v -3.918396 10.000000 0.779417
v -3.691048 10.000000 1.528882
v -3.570280 10.500000 1.916886
v -2.576581 10.500000 3.127712
v -2.219593 10.000000 3.321856
v -1.528882 10.000000 3.691048
v -1.169125 10.500000 3.880013
v 0.389710 10.500000 4.033545
v 0.779419 10.000000 3.918395
v 1.528884 10.000000 3.691047
v 1.916888 10.500000 3.570279
v 3.127714 10.500000 2.576579
v 3.321857 10.000000 2.219591
v 3.691049 10.000000 1.528879
v 3.880014 10.500000 1.169123
v 4.033544 10.500000 -0.389713
v 3.918395 10.000000 -0.779421
v 3.691046 10.000000 -1.528886
v 3.570278 10.500000 -1.916891
v 2.576577 10.500000 -3.127715
v 2.219588 10.000000 -3.321858
v 1.528877 10.000000 -3.691050
v 1.169116 10.500000 -3.880014
v -0.779417 9.000000 -3.918396
v -0.389705 8.500000 -4.033544
v -1.528882 9.000000 -3.691048
v -1.916886 8.500000 -3.570281
v -3.127712 8.500000 -2.576581
v -3.321855 9.000000 -2.219593
v -3.691048 9.000000 -1.528882
v -3.880013 8.500000 -1.169126
v -4.033545 8.500000 0.389708
v -3.918396 9.000000 0.779417
v -3.691048 9.000000 1.528882
v -3.570280 8.500000 1.916886
v -2.576581 8.500000 3.127712
v -2.219593 9.000000 3.321856
v -1.528882 9.000000 3.691048
v -1.169125 8.500000 3.880013
v 0.389710 8.500000 4.033545
v 0.779419 9.000000 3.918395
v 1.528884 9.000000 3.691047
v 1.916888 8.500000 3.570279
v 3.127714 8.500000 2.576579
v 3.321857 9.000000 2.219591
v 3.691049 9.000000 1.528879
v 3.880014 8.500000 1.169123
v 4.033544 8.500000 -0.389713
v 3.918395 9.000000 -0.779421
v 3.691046 9.000000 -1.528886
v 3.570278 8.500000 -1.916891
v 2.576577 8.500000 -3.127715
v 2.219588 9.000000 -3.321858
v 1.528877 9.000000 -3.691050
v 1.169116 8.500000 -3.880014
v -0.975452 9.000000 -4.903926
v 0.000000 9.000000 -5.000000
v -1.913417 9.000000 -4.619398
v -2.777851 9.000000 -4.157348
v -3.535534 9.000000 -3.535534
v -4.157348 9.000000 -2.777851
v -4.619398 9.000000 -1.913417
v -4.903926 9.000000 -0.975452
v -5.000000 9.000000 -0.000000
v -4.903926 9.000000 0.975451
v -4.619398 9.000000 1.913416
v -4.157348 9.000000 2.777851
v -3.535534 9.000000 3.535534
v -2.777851 9.000000 4.157348
v -1.913416 9.000000 4.619398
v -0.975450 9.000000 4.903926
v 0.000002 9.000000 5.000000
v 0.975454 9.000000 4.903926
v 1.913419 9.000000 4.619397
v 2.777853 9.000000 4.157347
v 3.535536 9.000000 3.535532
v 4.157350 9.000000 2.777848
v 4.619399 9.000000 1.913413
v 4.903927 9.000000 0.975447
v 5.000000 9.000000 -0.000005
v 4.903925 9.000000 -0.975457
v 4.619395 9.000000 -1.913422
v 4.157345 9.000000 -2.777856
v 3.535529 9.000000 -3.535538
v 2.777846 9.000000 -4.157352
v 1.913410 9.000000 -4.619401
v 0.975444 9.000000 -4.903928
v 0.099199 9.750000 0.990416
v -0.290510 9.750000 0.952033
v 0.099199 9.250000 0.990416
v -0.290510 9.250000 0.952033
v 0.990416 9.750000 -0.099198
v 0.952033 9.750000 0.290511
v 0.990416 9.250000 -0.099198
v 0.952033 9.250000 0.290511
v -0.099196 9.750000 -0.990416
v 0.290509 9.750000 -0.952033
v -0.099196 9.250000 -0.990416
v 0.290509 9.250000 -0.952033
v -0.990416 9.750000 0.099197
v -0.952033 9.750000 -0.290511
v -0.990416 9.250000 0.099197
v -0.952033 9.250000 -0.290511
v -0.630186 9.750000 0.770473
v -0.878611 9.750000 0.467766
v -0.630186 9.250000 0.770473
v -0.878611 9.250000 0.467766
v -0.770472 9.750000 -0.630187
v -0.467766 9.750000 -0.878612
v -0.770472 9.250000 -0.630187
v -0.467766 9.250000 -0.878612
v 0.630186 9.750000 -0.770473
v 0.878611 9.750000 -0.467767
v 0.630186 9.250000 -0.770473
v 0.878611 9.250000 -0.467767
v 0.770474 9.750000 0.630186
v 0.467767 9.750000 0.878611
v 0.770474 9.250000 0.630186
v 0.467767 9.250000 0.878611
v 0.779790 -0.694272 8.063320
v -2.337881 -0.694272 7.756256
v 0.000373 0.305728 9.996231
v -1.950531 0.305728 9.804085
v -8.063320 -0.694272 0.779787
v -7.756256 -0.694272 -2.337881
v -9.996231 0.305728 0.000370
v -9.804085 0.305728 -1.950533
v -0.779781 -0.694272 -8.063316
v 2.337862 -0.694272 -7.756258
v -0.000371 0.305728 -9.996231
v 1.950517 0.305728 -9.804085
v 8.063318 -0.694272 -0.779797
v 7.756258 -0.694272 2.337873
v 9.996231 0.305728 -0.000382
v 9.804087 0.305728 1.950523
vt 0.000000 0.000000
vt 0.000000 0.000000
vt 0.000000 0.000000
vt 0.000000 0.000000
vt 0.000000 0.000000
vt 0.000000 0.000000
vt 0.000000 0.000000
vt 0.000000 0.000000
vt 0.000000 0.000000
vt 0.000000 0.000000
vt 0.000000 0.000000
vt 0.000000 0.000000
vt 0.000000 0.000000
vt 0.000000 0.000000
vt 0.000000 0.000000
vt 0.000000 0.000000
vt 0.000000 0.000000
vt 0.000000 0.000000
vt 0.000000 0.000000
vt 0.000000 0.000000
vt 0.000000 0.000000
vt 0.000000 0.000000
vt 0.000000 0.000000
vt 0.000000 0.000000
vt 0.000000 0.000000
vt 0.000000 0.000000
vt 0.000000 0.000000
vt 0.000000 0.000000
vt 0.000000 0.000000
vt 0.000000 0.000000
vt 0.000000 0.000000
vt 0.000000 0.000000
vt 0.000000 0.000000
vt 0.000000 0.000000
vt 0.000000 0.000000
vt 0.000000 0.000000
vt 0.000000 0.000000
vt 0.000000 0.000000
vt 0.000000 0.000000
vt 0.000000 0.000000
vt 0.000000 0.000000
vt 0.000000 0.000000
vt 0.000000 0.000000
vt 0.000000 0.000000
vt 0.000000 0.000000
vt 0.000000 0.000000
vt 0.000000 0.000000
vt 0.000000 0.000000
vt 0.000000 0.000000
vt 0.000000 0.000000
vt 0.000000 0.000000
vt 0.000000 0.000000
vt 0.000000 0.000000
vt 0.000000 0.000000
vt 0.000000 0.000000
vt 0.000000 0.000000
vt 0.000000 0.000000
vt 0.000000 0.000000
vt 0.000000 0.000000
vt 0.000000 0.000000
vt 0.000000 0.000000
vt 0.000000 0.000000
vt 0.000000 0.000000
vt 0.000000 0.000000
vt 0.000000 0.000000
vt 0.000000 0.000000
vt 0.000000 0.000000
vt 0.000000 0.000000
vt 0.000000 0.000000
vt 0.000000 0.000000
vt 0.000000 0.000000
vt 0.000000 0.000000
vt 0.000000 0.000000
vt 0.000000 0.000000
vt 0.000000 0.000000
vt 0.000000 0.000000
vt 0.000000 0.000000
vt 0.000000 0.000000
vt 0.000000 0.000000
vt 0.000000 0.000000
vt 0.000000 0.000000
vt 0.000000 0.000000
vt 0.000000 0.000000
vt 0.000000 0.000000
vt 0.000000 0.000000
vt 0.000000 0.000000
vt 0.000000 0.000000
vt 0.000000 0.000000
vt 0.000000 0.000000
vt 0.000000 0.000000
vt 0.000000 0.000000
vt 0.000000 0.000000
vt 0.000000 0.000000
vt 0.000000 0.000000
vt 0.000000 0.000000
vt 0.000000 0.000000
vt 0.000000 0.000000
vt 0.000000 0.000000
vt 0.000000 0.000000
vt 0.000000 0.000000
vt 0.000000 0.000000
vt 0.000000 0.000000
vt 0.000000 0.000000
vt 0.000000 0.000000
vt 0.000000 0.000000
vt 0.000000 0.000000
vt 0.000000 0.000000
vt 0.000000 0.000000
vt 0.000000 0.000000
vt 0.000000 0.000000
vt 0.000000 0.000000
vt 0.000000 0.000000
vt 0.000000 0.000000
vt 0.000000 0.000000
vt 0.000000 0.000000
vt 0.000000 0.000000
vt 0.000000 0.000000
vt 0.000000 0.000000
vt 0.000000 0.000000
vt 0.000000 0.000000
vt 0.000000 0.000000
vt 0.000000 0.000000
vt 0.000000 0.000000
vt 0.000000 0.000000
vt 0.000000 0.000000
vt 0.000000 0.000000
vt 0.000000 0.000000
vt 0.000000 0.000000
vt 0.000000 0.000000
vt 0.000000 0.000000
vt 0.000000 0.000000
vt 0.000000 0.000000
vt 0.000000 0.000000
vt 0.000000 0.000000
vt 0.000000 0.000000
vt 0.000000 0.000000
vt 0.000000 0.000000
vt 0.000000 0.000000
vt 0.000000 0.000000
vt 0.000000 0.000000
vt 0.000000 0.000000
vt 0.000000 0.000000
vt 0.000000 0.000000
vt 0.000000 0.000000
vt 0.000000 0.000000
vt 0.000000 0.000000
vt 0.000000 0.000000
vt 0.000000 0.000000
vt 0.000000 0.000000
vt 0.000000 0.000000
vt 0.000000 0.000000
vt 0.000000 0.000000
vt 0.000000 0.000000
vt 0.000000 0.000000
vt 0.000000 0.000000
vt 0.000000 0.000000
vt 0.000000 0.000000
vt 0.000000 0.000000
vt 0.000000 0.000000
vt 0.000000 0.000000
vt 0.000000 0.000000
vt 0.000000 0.000000
vt 0.000000 0.000000
vt 0.000000 0.000000
vt 0.000000 0.000000
vt 0.000000 0.000000
vt 0.000000 0.000000
vt 0.000000 0.000000
vt 0.000000 0.000000
vt 0.000000 0.000000
vt 0.000000 0.000000
vt 0.000000 0.000000
vt 0.000000 0.000000
vt 0.000000 0.000000
vt 0.000000 0.000000
vt 0.000000 0.000000
vn -0.7263 -0.4456 -0.5234
vn 0.0000 1.0000 0.0000
vn 0.3131 0.4456 -0.8387
vn -0.2837 0.8944 -0.3457
vn -0.3716 0.4456 -0.8145
vn -0.4451 0.8944 -0.0438
vn -0.8387 0.4456 -0.3131
vn -0.3457 0.8944 0.2837
vn -0.8145 0.4456 0.3716
vn -0.0438 0.8944 0.4451
vn -0.3131 0.4456 0.8387
vn 0.2837 0.8944 0.3457
vn 0.3716 0.4456 0.8145
vn 0.4451 0.8944 0.0438
vn 0.8387 0.4456 0.3131
vn 0.3457 0.8944 -0.2837
vn 0.8145 0.4456 -0.3716
vn 0.0438 0.8944 -0.4451
vn 0.0000 -1.0000 -0.0000
vn 0.3131 -0.4456 -0.8387
vn -0.2837 -0.8944 -0.3457
vn -0.8837 -0.4456 0.1435
vn -0.3716 -0.4456 -0.8145
vn -0.1033 0.1682 -0.9803
vn -0.5234 -0.4456 0.7263
vn -0.8387 -0.4456 -0.3131
vn -0.3457 -0.8944 0.2837
vn 0.1435 -0.4456 0.8837
vn -0.8145 -0.4456 0.3716
vn -0.0851 0.4964 0.8639
vn 0.7263 -0.4456 0.5234
vn -0.3131 -0.4456 0.8387
vn 0.2837 -0.8944 0.3457
vn 0.8837 -0.4456 -0.1435
vn 0.3716 -0.4456 0.8145
vn -0.9136 -0.3966 -0.0900
vn 0.5234 -0.4456 -0.7263
vn 0.8387 -0.4456 0.3131
vn 0.3457 -0.8944 -0.2837
vn -0.1435 -0.4456 -0.8837
vn 0.8145 -0.4456 -0.3716
vn -0.9413 0.1682 -0.2926
vn 0.8819 0.0000 -0.4714
vn -0.0980 0.0000 -0.9952
vn 0.8853 0.0000 0.4650
vn 0.7730 0.0000 -0.6344
vn -0.2903 0.0000 -0.9569
vn 0.0950 0.0000 0.9955
vn 0.6344 0.0000 -0.7730
vn -0.4714 0.0000 -0.8819
vn 0.9590 0.0000 -0.2834
vn 0.4714 0.0000 -0.8819
vn -0.6344 0.0000 -0.7730
vn 0.9569 0.0000 -0.2903
vn 0.2903 0.0000 -0.9569
vn -0.7730 0.0000 -0.6344
vn 0.9548 0.0000 -0.2972
vn 0.0980 0.0000 -0.9952
vn -0.8819 0.0000 -0.4714
vn 0.7711 0.0000 0.6367
vn -0.9569 0.0000 -0.2903
vn 0.4778 0.0000 -0.8785
vn -0.9952 0.0000 -0.0980
vn -0.9952 0.0000 0.0980
vn 0.4650 0.0000 -0.8853
vn -0.9569 0.0000 0.2903
vn 0.0238 -0.9701 -0.2414
vn -0.8819 0.0000 0.4714
vn -0.2834 0.0000 -0.9590
vn -0.7730 0.0000 0.6344
vn -0.6344 0.0000 0.7730
vn -0.2972 0.0000 -0.9548
vn -0.4714 0.0000 0.8819
vn 0.6367 0.0000 -0.7711
vn -0.2903 0.0000 0.9569
vn -0.8785 0.0000 -0.4778
vn -0.0980 0.0000 0.9952
vn 0.0980 0.0000 0.9952
vn -0.8853 0.0000 -0.4650
vn -0.2874 0.0000 0.9578
vn 0.4714 0.0000 0.8819
vn -0.9590 0.0000 0.2834
vn 0.6344 0.0000 0.7730
vn 0.7730 0.0000 0.6344
vn -0.9548 0.0000 0.2972
vn 0.2834 0.0000 0.9590
vn 0.8819 0.0000 0.4714
vn -0.1875 -0.9701 0.1539
vn 0.2903 0.0000 0.9569
vn 0.9569 0.0000 0.2903
vn -0.4778 0.0000 0.8785
vn 0.2972 0.0000 0.9548
vn 0.9952 0.0000 0.0980
vn 0.1539 -0.9701 0.1875
vn 0.9952 0.0000 -0.0980
vn -0.4650 0.0000 0.8853
vn 0.8785 0.0000 0.4778
vn -0.9955 0.0000 0.0950
vn 0.9955 0.0000 -0.0950
vn -0.9578 0.0000 -0.2874
vn 0.0238 0.9701 -0.2414
vn -0.2414 -0.9701 -0.0238
vn -0.2414 0.9701 -0.0238
vn -0.0950 0.0000 -0.9955
vn -0.0238 0.9701 0.2414
vn 0.9578 0.0000 0.2874
vn -0.0238 -0.9701 0.2414
vn 0.2414 0.9701 0.0238
vn 0.2874 0.0000 -0.9578
vn 0.2414 -0.9701 0.0238
vn 0.1875 0.9701 -0.1539
vn -0.4740 0.0000 -0.8805
vn 0.1875 -0.9701 -0.1539
vn 0.8805 0.0000 -0.4740
vn 0.1539 0.9701 0.1875
vn -0.6367 0.0000 0.7711
vn -0.1875 0.9701 0.1539
vn -0.7711 0.0000 -0.6367
vn 0.4740 0.0000 0.8805
vn -0.1539 -0.9701 -0.1875
vn -0.8805 0.0000 0.4740
vn -0.1539 0.9701 -0.1875
vn -0.0438 -0.8944 0.4451
vn 0.9413 0.1682 0.2926
vn 0.0900 -0.3966 -0.9136
vn -0.9803 0.1682 0.1033
vn -0.4451 -0.8944 -0.0438
vn -0.8639 0.4964 -0.0851
vn -0.2926 0.1682 0.9413
vn 0.9136 -0.3966 0.0900
vn 0.0438 -0.8944 -0.4451
vn 0.0851 0.4964 -0.8639
vn -0.0900 -0.3966 0.9136
vn 0.9803 0.1682 -0.1033
vn 0.4451 -0.8944 0.0438
vn 0.1033 0.1682 0.9803
vn 0.8639 0.4964 0.0851
vn 0.2926 0.1682 -0.9413
vn 0.7263 0.4456 0.5234
vn -0.7263 0.4456 -0.5234
vn -0.8837 0.4456 0.1435
vn -0.5234 0.4456 0.7263
vn 0.1435 0.4456 0.8837
vn 0.8837 0.4456 -0.1435
vn 0.5234 0.4456 -0.7263
vn -0.1435 0.4456 -0.8837
usemtl quarry
s off
f 65/1/1 98/2/1 66/3/1
f 33/4/2 1/5/2 2/6/2
f 33/4/2 3/7/2 35/8/2
f 35/8/3 4/9/3 36/10/3
f 36/10/4 5/11/4 37/12/4
f 38/13/2 5/11/2 6/14/2
f 38/13/2 7/15/2 39/16/2
f 39/16/5 8/17/5 40/18/5
f 40/18/6 9/19/6 41/20/6
f 42/21/2 9/19/2 10/22/2
f 42/21/2 11/23/2 43/24/2
f 43/24/7 12/25/7 44/26/7
f 45/27/8 12/25/8 13/28/8
f 46/29/2 13/28/2 14/30/2
f 46/29/2 15/31/2 47/32/2
f 47/32/9 16/33/9 48/34/9
f 48/34/10 17/35/10 49/36/10
f 50/37/2 17/35/2 18/38/2
f 50/37/2 19/39/2 51/40/2
f 51/40/11 20/41/11 52/42/11
f 53/43/12 20/41/12 21/44/12
f 54/45/2 21/44/2 22/46/2
f 54/45/2 23/47/2 55/48/2
f 55/48/13 24/49/13 56/50/13
f 56/50/14 25/51/14 57/52/14
f 58/53/2 25/51/2 26/54/2
f 58/53/2 27/55/2 59/56/2
f 59/56/15 28/57/15 60/58/15
f 60/58/16 29/59/16 61/60/16
f 62/61/2 29/59/2 30/62/2
f 62/61/2 31/63/2 63/64/2
f 63/64/17 32/65/17 64/66/17
f 34/67/18 32/65/18 1/5/18
f 99/68/19 65/1/19 67/69/19
f 100/70/20 67/69/20 68/71/20
f 101/72/21 68/71/21 69/73/21
f 70/74/22 101/72/22 69/73/22
f 103/75/19 70/74/19 71/76/19
f 104/77/23 71/76/23 72/78/23
f 72/78/24 168/79/24 104/77/24
f 74/80/25 105/81/25 73/82/25
f 107/83/19 74/80/19 75/84/19
f 108/85/26 75/84/26 76/86/26
f 77/87/27 108/85/27 76/86/27
f 78/88/28 109/89/28 77/87/28
f 111/90/19 78/88/19 79/91/19
f 112/92/29 79/91/29 80/93/29
f 112/92/30 163/94/30 113/95/30
f 82/96/31 113/95/31 81/97/31
f 115/98/19 82/96/19 83/99/19
f 116/100/32 83/99/32 84/101/32
f 85/102/33 116/100/33 84/101/33
f 86/103/34 117/104/34 85/102/34
f 119/105/19 86/103/19 87/106/19
f 120/107/35 87/106/35 88/108/35
f 89/109/36 174/110/36 88/108/36
f 90/111/37 121/112/37 89/109/37
f 123/113/19 90/111/19 91/114/19
f 124/115/38 91/114/38 92/116/38
f 125/117/39 92/116/39 93/118/39
f 94/119/40 125/117/40 93/118/40
f 127/120/19 94/119/19 95/121/19
f 128/122/41 95/121/41 96/123/41
f 66/3/42 171/124/42 169/125/42
f 123/113/43 28/57/43 27/55/43
f 98/2/44 2/6/44 1/5/44
f 72/78/45 39/16/45 40/18/45
f 124/115/46 29/59/46 28/57/46
f 97/126/47 3/7/47 2/6/47
f 73/82/48 141/127/48 41/20/48
f 125/117/49 30/62/49 29/59/49
f 99/68/50 4/9/50 3/7/50
f 42/21/51 73/82/51 41/20/51
f 126/128/52 31/63/52 30/62/52
f 100/70/53 5/11/53 4/9/53
f 75/84/54 42/21/54 43/24/54
f 127/120/55 32/65/55 31/63/55
f 101/72/56 6/14/56 5/11/56
f 76/86/57 43/24/57 44/26/57
f 128/122/58 1/5/58 32/65/58
f 102/129/59 7/15/59 6/14/59
f 77/87/60 145/130/60 45/27/60
f 103/75/61 8/17/61 7/15/61
f 78/88/62 45/27/62 46/29/62
f 104/77/63 9/19/63 8/17/63
f 79/91/52 46/29/52 47/32/52
f 105/81/64 10/22/64 9/19/64
f 80/93/65 47/32/65 48/34/65
f 106/131/66 11/23/66 10/22/66
f 80/93/67 131/132/67 81/97/67
f 107/83/68 12/25/68 11/23/68
f 82/96/69 49/36/69 50/37/69
f 108/85/70 13/28/70 12/25/70
f 83/99/47 50/37/47 51/40/47
f 109/89/71 14/30/71 13/28/71
f 84/101/72 51/40/72 52/42/72
f 110/133/73 15/31/73 14/30/73
f 85/102/74 157/134/74 53/43/74
f 111/90/75 16/33/75 15/31/75
f 86/103/76 53/43/76 54/45/76
f 112/92/77 17/35/77 16/33/77
f 87/106/59 54/45/59 55/48/59
f 113/95/78 18/38/78 17/35/78
f 88/108/79 55/48/79 56/50/79
f 56/50/80 136/135/80 88/108/80
f 115/98/81 20/41/81 19/39/81
f 90/111/82 57/52/82 58/53/82
f 116/100/83 21/44/83 20/41/83
f 91/114/66 58/53/66 59/56/66
f 117/104/84 22/46/84 21/44/84
f 92/116/85 59/56/85 60/58/85
f 65/1/86 34/67/86 33/4/86
f 118/136/87 23/47/87 22/46/87
f 92/116/88 155/137/88 93/118/88
f 67/69/89 33/4/89 35/8/89
f 119/105/90 24/49/90 23/47/90
f 94/119/91 61/60/91 62/61/91
f 68/71/92 35/8/92 36/10/92
f 120/107/93 25/51/93 24/49/93
f 95/121/73 62/61/73 63/64/73
f 68/71/94 151/138/94 69/73/94
f 121/112/95 26/54/95 25/51/95
f 96/123/96 63/64/96 64/66/96
f 70/74/97 37/12/97 38/13/97
f 122/139/54 27/55/54 26/54/54
f 66/3/98 137/140/98 34/67/98
f 71/76/87 38/13/87 39/16/87
f 131/132/58 130/141/58 129/142/58
f 81/97/99 129/142/99 49/36/99
f 48/34/100 132/143/100 80/93/100
f 49/36/101 130/141/101 48/34/101
f 135/144/63 134/145/63 133/146/63
f 88/108/102 135/144/102 89/109/102
f 57/52/103 134/145/103 56/50/103
f 89/109/104 133/146/104 57/52/104
f 139/147/77 138/148/77 137/140/77
f 34/67/105 138/148/105 64/66/105
f 64/66/106 140/149/106 96/123/106
f 66/3/107 140/149/107 139/147/107
f 143/150/93 142/151/93 141/127/93
f 41/20/108 142/151/108 40/18/108
f 40/18/109 144/152/109 72/78/109
f 72/78/110 143/150/110 73/82/110
f 147/153/46 146/154/46 145/130/46
f 45/27/111 146/154/111 44/26/111
f 44/26/112 148/155/112 76/86/112
f 76/86/113 147/153/113 77/87/113
f 151/138/83 150/156/83 149/157/83
f 36/10/114 152/158/114 68/71/114
f 37/12/115 150/156/115 36/10/115
f 69/73/116 149/157/116 37/12/116
f 155/137/70 154/159/70 153/160/70
f 61/60/117 154/159/117 60/58/117
f 93/118/118 153/160/118 61/60/118
f 60/58/119 156/161/119 92/116/119
f 159/162/53 158/163/53 157/134/53
f 84/101/120 159/162/120 85/102/120
f 52/42/121 160/164/121 84/101/121
f 53/43/122 158/163/122 52/42/122
f 163/94/123 162/165/123 161/166/123
f 81/97/124 163/94/124 161/166/124
f 81/97/125 162/165/125 80/93/125
f 80/93/126 164/167/126 112/92/126
f 165/168/127 168/79/127 166/169/127
f 104/77/128 167/170/128 105/81/128
f 73/82/129 167/170/129 165/168/129
f 73/82/130 166/169/130 72/78/130
f 169/125/131 172/171/131 170/172/131
f 98/2/132 172/171/132 171/124/132
f 66/3/133 170/172/133 96/123/133
f 96/123/134 172/171/134 128/122/134
f 175/173/135 174/110/135 173/174/135
f 88/108/136 176/175/136 120/107/136
f 120/107/137 175/173/137 121/112/137
f 89/109/138 175/173/138 173/174/138
f 114/176/89 19/39/89 18/38/89
f 50/37/139 49/36/139 17/35/139
f 47/32/2 15/31/2 16/33/2
f 35/8/2 3/7/2 4/9/2
f 39/16/2 7/15/2 8/17/2
f 43/24/2 11/23/2 12/25/2
f 51/40/2 19/39/2 20/41/2
f 55/48/2 23/47/2 24/49/2
f 59/56/2 27/55/2 28/57/2
f 63/64/2 31/63/2 32/65/2
f 33/4/140 34/67/140 1/5/140
f 38/13/141 37/12/141 5/11/141
f 42/21/142 41/20/142 9/19/142
f 46/29/143 45/27/143 13/28/143
f 54/45/144 53/43/144 21/44/144
f 58/53/145 57/52/145 25/51/145
f 62/61/146 61/60/146 29/59/146
f 100/70/19 99/68/19 67/69/19
f 104/77/19 103/75/19 71/76/19
f 108/85/19 107/83/19 75/84/19
f 112/92/19 111/90/19 79/91/19
f 116/100/19 115/98/19 83/99/19
f 120/107/19 119/105/19 87/106/19
f 124/115/19 123/113/19 91/114/19
f 128/122/19 127/120/19 95/121/19
f 65/1/19 97/126/19 98/2/19
f 70/74/19 102/129/19 101/72/19
f 74/80/19 106/131/19 105/81/19
f 78/88/19 110/133/19 109/89/19
f 82/96/19 114/176/19 113/95/19
f 86/103/19 118/136/19 117/104/19
f 90/111/19 122/139/19 121/112/19
f 94/119/19 126/128/19 125/117/19
f 33/4/2 2/6/2 3/7/2
f 36/10/4 4/9/4 5/11/4
f 38/13/2 6/14/2 7/15/2
f 40/18/6 8/17/6 9/19/6
f 42/21/2 10/22/2 11/23/2
f 45/27/8 44/26/8 12/25/8
f 46/29/2 14/30/2 15/31/2
f 48/34/10 16/33/10 17/35/10
f 50/37/2 18/38/2 19/39/2
f 53/43/12 52/42/12 20/41/12
f 54/45/2 22/46/2 23/47/2
f 56/50/14 24/49/14 25/51/14
f 58/53/2 26/54/2 27/55/2
f 60/58/16 28/57/16 29/59/16
f 62/61/2 30/62/2 31/63/2
f 34/67/18 64/66/18 32/65/18
f 99/68/19 97/126/19 65/1/19
f 101/72/21 100/70/21 68/71/21
f 103/75/19 102/129/19 70/74/19
f 72/78/24 166/169/24 168/79/24
f 107/83/19 106/131/19 74/80/19
f 77/87/27 109/89/27 108/85/27
f 111/90/19 110/133/19 78/88/19
f 112/92/30 164/167/30 163/94/30
f 115/98/19 114/176/19 82/96/19
f 85/102/33 117/104/33 116/100/33
f 119/105/19 118/136/19 86/103/19
f 89/109/36 173/174/36 174/110/36
f 123/113/19 122/139/19 90/111/19
f 125/117/39 124/115/39 92/116/39
f 127/120/19 126/128/19 94/119/19
f 66/3/42 98/2/42 171/124/42
f 123/113/43 124/115/43 28/57/43
f 98/2/44 97/126/44 2/6/44
f 72/78/45 71/76/45 39/16/45
f 124/115/46 125/117/46 29/59/46
f 97/126/47 99/68/47 3/7/47
f 73/82/48 143/150/48 141/127/48
f 125/117/49 126/128/49 30/62/49
f 99/68/50 100/70/50 4/9/50
f 42/21/51 74/80/51 73/82/51
f 126/128/52 127/120/52 31/63/52
f 100/70/53 101/72/53 5/11/53
f 75/84/54 74/80/54 42/21/54
f 127/120/55 128/122/55 32/65/55
f 101/72/56 102/129/56 6/14/56
f 76/86/57 75/84/57 43/24/57
f 128/122/58 98/2/58 1/5/58
f 102/129/59 103/75/59 7/15/59
f 77/87/60 147/153/60 145/130/60
f 103/75/61 104/77/61 8/17/61
f 78/88/62 77/87/62 45/27/62
f 104/77/63 105/81/63 9/19/63
f 79/91/52 78/88/52 46/29/52
f 105/81/64 106/131/64 10/22/64
f 80/93/65 79/91/65 47/32/65
f 106/131/66 107/83/66 11/23/66
f 80/93/67 132/143/67 131/132/67
f 107/83/68 108/85/68 12/25/68
f 82/96/69 81/97/69 49/36/69
f 108/85/70 109/89/70 13/28/70
f 83/99/47 82/96/47 50/37/47
f 109/89/71 110/133/71 14/30/71
f 84/101/72 83/99/72 51/40/72
f 110/133/73 111/90/73 15/31/73
f 85/102/74 159/162/74 157/134/74
f 111/90/75 112/92/75 16/33/75
f 86/103/76 85/102/76 53/43/76
f 112/92/77 113/95/77 17/35/77
f 87/106/59 86/103/59 54/45/59
f 113/95/78 114/176/78 18/38/78
f 88/108/79 87/106/79 55/48/79
f 56/50/80 134/145/80 136/135/80
f 115/98/81 116/100/81 20/41/81
f 90/111/82 89/109/82 57/52/82
f 116/100/83 117/104/83 21/44/83
f 91/114/66 90/111/66 58/53/66
f 117/104/84 118/136/84 22/46/84
f 92/116/85 91/114/85 59/56/85
f 65/1/86 66/3/86 34/67/86
f 118/136/87 119/105/87 23/47/87
f 92/116/88 156/161/88 155/137/88
f 67/69/89 65/1/89 33/4/89
f 119/105/90 120/107/90 24/49/90
f 94/119/91 93/118/91 61/60/91
f 68/71/92 67/69/92 35/8/92
f 120/107/93 121/112/93 25/51/93
f 95/121/73 94/119/73 62/61/73
f 68/71/94 152/158/94 151/138/94
f 121/112/95 122/139/95 26/54/95
f 96/123/96 95/121/96 63/64/96
f 70/74/97 69/73/97 37/12/97
f 122/139/54 123/113/54 27/55/54
f 66/3/98 139/147/98 137/140/98
f 71/76/87 70/74/87 38/13/87
f 131/132/58 132/143/58 130/141/58
f 81/97/99 131/132/99 129/142/99
f 48/34/100 130/141/100 132/143/100
f 49/36/101 129/142/101 130/141/101
f 135/144/63 136/135/63 134/145/63
f 88/108/102 136/135/102 135/144/102
f 57/52/103 133/146/103 134/145/103
f 89/109/104 135/144/104 133/146/104
f 139/147/77 140/149/77 138/148/77
f 34/67/105 137/140/105 138/148/105
f 64/66/106 138/148/106 140/149/106
f 66/3/107 96/123/107 140/149/107
f 143/150/93 144/152/93 142/151/93
f 41/20/108 141/127/108 142/151/108
f 40/18/109 142/151/109 144/152/109
f 72/78/110 144/152/110 143/150/110
f 147/153/46 148/155/46 146/154/46
f 45/27/111 145/130/111 146/154/111
f 44/26/112 146/154/112 148/155/112
f 76/86/113 148/155/113 147/153/113
f 151/138/83 152/158/83 150/156/83
f 36/10/114 150/156/114 152/158/114
f 37/12/115 149/157/115 150/156/115
f 69/73/116 151/138/116 149/157/116
f 155/137/70 156/161/70 154/159/70
f 61/60/117 153/160/117 154/159/117
f 93/118/118 155/137/118 153/160/118
f 60/58/119 154/159/119 156/161/119
f 159/162/53 160/164/53 158/163/53
f 84/101/120 160/164/120 159/162/120
f 52/42/121 158/163/121 160/164/121
f 53/43/122 157/134/122 158/163/122
f 163/94/123 164/167/123 162/165/123
f 81/97/124 113/95/124 163/94/124
f 81/97/125 161/166/125 162/165/125
f 80/93/126 162/165/126 164/167/126
f 165/168/127 167/170/127 168/79/127
f 104/77/128 168/79/128 167/170/128
f 73/82/129 105/81/129 167/170/129
f 73/82/130 165/168/130 166/169/130
f 169/125/131 171/124/131 172/171/131
f 98/2/132 128/122/132 172/171/132
f 66/3/133 169/125/133 170/172/133
f 96/123/134 170/172/134 172/171/134
f 175/173/135 176/175/135 174/110/135
f 88/108/136 174/110/136 176/175/136
f 120/107/137 176/175/137 175/173/137
f 89/109/138 121/112/138 175/173/138
f 114/176/89 115/98/89 19/39/89
